<svg width="272" height="80" viewBox="0 0 272 80" fill="none" xmlns="http://www.w3.org/2000/svg">
<path d="M0 40.0001L98.4 40.0003" stroke="#F3B5A8" stroke-width="2"/>
<path d="M172.8 40.0001L271.2 40.0003" stroke="#F3B5A8" stroke-width="2"/>
<path fill-rule="evenodd" clip-rule="evenodd" d="M139.752 48.5538L127.655 4.93343L115.752 48.5538H139.752ZM166.226 77.7908H146.798C146.612 73.0299 145.944 71.0291 144.706 66.4572L140.323 50.5517H115.182L110.61 67.412C109.659 71.0291 108.798 73.3167 108.515 77.7908H104.8C107.088 73.1244 107.56 71.0291 108.515 67.5065L124.704 8.3651C125.372 5.69626 125.564 4.36347 124.704 1.60013L143.849 1.60013L161.752 66.4572C163.088 71.5048 164.134 73.9814 166.226 77.7908Z" fill="#F3B5A8"/>
</svg>
