<svg width="272" height="80" viewBox="0 0 272 80" fill="none" xmlns="http://www.w3.org/2000/svg">
<path fill-rule="evenodd" clip-rule="evenodd" d="M129.638 40.5539C139.446 40.5539 148.114 36.7413 148.114 22.0773C148.114 7.41013 139.446 3.60076 129.638 3.60076H123.449V40.5539H129.638ZM107.446 57.411V21.9829C107.446 13.1258 107.162 8.84071 106.4 1.59998H129.924C148.208 1.59998 164.401 5.12584 164.401 22.0774C164.401 39.0289 148.208 42.5548 129.924 42.5548H123.449V57.411C123.449 66.268 123.733 70.5532 124.495 77.7906H106.4C107.162 70.5532 107.446 66.268 107.446 57.411Z" fill="#F3B5A8"/>
<path d="M0 40L96.8 40" stroke="#F3B5A8" stroke-width="2"/>
<path d="M171.2 40.0001L271.2 40" stroke="#F3B5A8" stroke-width="2"/>
</svg>
