<svg width="272" height="81" viewBox="0 0 272 81" fill="none" xmlns="http://www.w3.org/2000/svg">
<path d="M0 40.1398L74.4 40.1401" stroke="#F3B5A8" stroke-width="2"/>
<path d="M196.8 40.1398L271.2 40.1401" stroke="#F3B5A8" stroke-width="2"/>
<path fill-rule="evenodd" clip-rule="evenodd" d="M163.43 40.1397C163.43 20.1414 154.072 2.14055 135.551 2.14055C117.034 2.14055 107.774 20.1414 107.774 40.1397C107.774 60.2326 117.034 78.139 135.551 78.139C154.072 78.139 163.43 60.2326 163.43 40.1397ZM90.4 40.1398C90.4 15.4718 109.779 0.139771 135.551 0.139771C161.329 0.139771 180.8 15.4718 180.8 40.1398C180.8 64.8991 161.329 80.1398 135.551 80.1398C109.779 80.1398 90.4 64.8991 90.4 40.1398Z" fill="#F3B5A8"/>
</svg>
