<svg width="68" height="96" viewBox="0 0 68 96" fill="none" xmlns="http://www.w3.org/2000/svg">
<path d="M0 0V68H68V0H0ZM34 56.4696C29.5611 56.4696 25.2219 55.1534 21.5311 52.6872C17.8403 50.2211 14.9637 46.716 13.265 42.615C11.5663 38.514 11.1218 34.0013 11.9878 29.6477C12.8538 25.2941 14.9913 21.2951 18.1301 18.1563C21.2689 15.0176 25.2679 12.8801 29.6215 12.0141C33.9751 11.1481 38.4877 11.5926 42.5887 13.2913C46.6897 14.9899 50.1949 17.8666 52.661 21.5574C55.1271 25.2482 56.4434 29.5874 56.4434 34.0262C56.4434 39.9786 54.0788 45.6872 49.8699 49.8961C45.6609 54.1051 39.9524 56.4696 34 56.4696Z" fill="#010101"/>
<path fill-rule="evenodd" clip-rule="evenodd" d="M47.9043 91.6471V74H45.1029V78.9601C44.6257 78.5993 44.1034 78.3 43.5482 78.0701C42.6913 77.7153 41.7729 77.5329 40.8454 77.5335C39.4496 77.5335 38.0851 77.9474 36.9244 78.7228C35.7637 79.4983 34.859 80.6005 34.3246 81.8901C33.7903 83.1797 33.6503 84.5987 33.9223 85.9679C34.1943 87.3371 34.8662 88.5949 35.8529 89.5822C36.8396 90.5696 38.0969 91.2422 39.4659 91.515C40.8348 91.7878 42.2539 91.6486 43.5438 91.115C44.1024 90.8839 44.6259 90.5833 45.1029 90.2225V91.6471H47.9043ZM59.1873 80.3309C59.7002 80.3324 60.2087 80.4266 60.6881 80.609L60.9417 77.7462C59.8983 77.4818 58.8083 77.4589 57.7547 77.6794C56.7292 77.894 55.7645 78.3336 54.9301 78.966V77.5335H52.1288V84.5965V91.6471H54.9301V84.5965V84.5801C54.9312 84.0259 55.0404 83.4772 55.2518 82.9648C55.4653 82.4473 55.7787 81.977 56.1741 81.5808C56.5695 81.1846 57.0392 80.8703 57.5562 80.6558C58.0733 80.4413 58.6275 80.3309 59.1873 80.3309ZM9.40741 88.133C8.70594 88.6012 7.88134 88.8506 7.03802 88.8498C5.90966 88.8498 4.82746 88.4018 4.0292 87.6043C3.23094 86.8068 2.78195 85.7249 2.78086 84.5965L2.78086 84.5931V84.5836C2.78178 83.7448 3.03027 82.9247 3.49532 82.2263C3.96275 81.5244 4.62794 80.9769 5.40667 80.6532C6.18541 80.3295 7.04267 80.2442 7.86993 80.4081C8.69718 80.5719 9.45722 80.9775 10.0538 81.5736C10.6504 82.1696 11.0568 82.9293 11.2214 83.7565C11.386 84.5836 11.3015 85.441 10.9786 86.2201C10.6557 86.9992 10.1089 87.6649 9.40741 88.133ZM7.03802 91.6472C5.49103 91.6427 3.99772 91.1305 2.78086 90.2033V95.1765H0V84.5884V77.5335H2.78086V78.9735C3.26223 78.6067 3.79131 78.3014 4.35638 78.0672C5.6472 77.5323 7.06773 77.3926 8.43803 77.6657C9.80833 77.9388 11.0668 78.6125 12.0539 79.6014C13.041 80.5903 13.7125 81.8499 13.9832 83.2208C14.2539 84.5916 14.1117 86.012 13.5745 87.302C13.0374 88.5919 12.1295 89.6934 10.9659 90.4669C9.80228 91.2405 8.43527 91.6512 7.03802 91.6472ZM62.51 85.1912C63.0904 84.8034 63.7727 84.5964 64.4707 84.5964C65.4067 84.5964 66.3044 84.9682 66.9663 85.6301C67.6281 86.292 68 87.1897 68 88.1258C68 88.8238 67.793 89.5062 67.4052 90.0866C67.0174 90.667 66.4662 91.1194 65.8213 91.3865C65.1764 91.6537 64.4668 91.7236 63.7822 91.5874C63.0976 91.4512 62.4688 91.1151 61.9752 90.6215C61.4816 90.1279 61.1455 89.499 61.0093 88.8143C60.8731 88.1297 60.943 87.4201 61.2101 86.7751C61.4773 86.1302 61.9296 85.579 62.51 85.1912ZM19.8304 78.8599C21.0287 77.997 22.4674 77.5318 23.944 77.5295L23.9604 77.55C25.4354 77.5556 26.8717 78.0229 28.0676 78.8864C29.2636 79.7498 30.1592 80.9661 30.6287 82.3645C30.8705 83.0845 30.9931 83.8343 30.9961 84.5848H31.002V91.658H28.1927V84.5848H28.2175C28.2144 83.4572 27.7652 82.3765 26.9676 81.5789C26.1674 80.7786 25.0819 80.3289 23.9501 80.3289C22.8184 80.3289 21.7329 80.7786 20.9326 81.5789C20.1741 82.3375 19.7306 83.3523 19.6864 84.4199V91.6472H16.8851V77.5295H19.6864V78.9663C19.7339 78.9303 19.7819 78.8948 19.8304 78.8599ZM40.8454 80.3308C40.0026 80.33 39.1785 80.5792 38.4773 81.0468C37.7761 81.5143 37.2293 82.1794 36.906 82.9577C36.5828 83.7361 36.4975 84.5929 36.6612 85.4197C36.8248 86.2465 37.2299 87.0062 37.8253 87.6027C38.4207 88.1993 39.1796 88.6059 40.006 88.7711C40.8324 88.9363 41.6893 88.8527 42.4683 88.531C43.2472 88.2092 43.9133 87.6636 44.3822 86.9633C44.8511 86.2629 45.1018 85.4392 45.1026 84.5964C45.1037 84.0366 44.9944 83.4821 44.7809 82.9647C44.5674 82.4472 44.254 81.9769 43.8586 81.5807C43.4632 81.1845 42.9935 80.8702 42.4765 80.6557C41.9594 80.4412 41.4052 80.3308 40.8454 80.3308Z" fill="#010101"/>
</svg>
