<svg width="84" height="84" viewBox="0 0 84 84" fill="none" xmlns="http://www.w3.org/2000/svg">
<path d="M0 0V84H84V0H0ZM42 69.7566C36.5167 69.7566 31.1565 68.1306 26.5972 65.0843C22.038 62.0379 18.4845 57.708 16.3862 52.642C14.2878 47.5761 13.7387 42.0017 14.8085 36.6237C15.8782 31.2457 18.5187 26.3057 22.396 22.4284C26.2733 18.5511 31.2133 15.9107 36.5913 14.8409C41.9692 13.7712 47.5437 14.3202 52.6096 16.4186C57.6755 18.517 62.0055 22.0705 65.0518 26.6297C68.0982 31.1889 69.7242 36.5491 69.7242 42.0324C69.7242 49.3853 66.8033 56.4371 61.604 61.6364C56.4047 66.8357 49.3529 69.7566 42 69.7566Z" fill="#010101"/>
</svg>
