<svg width="90" height="90" viewBox="0 0 90 90" fill="none" xmlns="http://www.w3.org/2000/svg">
<path d="M0 0V90H90V0H0ZM44.9491 74.5831C39.081 74.5831 33.3448 72.843 28.4656 69.5828C23.5865 66.3227 19.7836 61.689 17.538 56.2676C15.2924 50.8462 14.7049 44.8806 15.8497 39.1253C16.9945 33.37 19.8202 28.0834 23.9696 23.9341C28.1189 19.7847 33.4055 16.959 39.1609 15.8142C44.9162 14.6694 50.8817 15.2569 56.3031 17.5025C61.7245 19.7481 66.3583 23.5509 69.6184 28.4301C72.8786 33.3092 74.6187 39.0455 74.6187 44.9136C74.6193 48.81 73.8523 52.6684 72.3615 56.2684C70.8708 59.8683 68.6853 63.1393 65.9301 65.8945C63.1749 68.6497 59.9038 70.8352 56.3039 72.326C52.7039 73.8167 48.8456 74.5837 44.9491 74.5831Z" fill="white"/>
</svg>
