<svg width="84" height="27" viewBox="0 0 84 27" fill="none" xmlns="http://www.w3.org/2000/svg">
<path fill-rule="evenodd" clip-rule="evenodd" d="M59.1273 13.0368V0H55.6697V6.12179C55.0807 5.67669 54.4362 5.30732 53.7511 5.02365C52.6935 4.58572 51.5599 4.36065 50.4152 4.36131C48.6923 4.36131 47.0081 4.87217 45.5755 5.8293C44.1429 6.78644 43.0262 8.14687 42.3666 9.7386C41.7071 11.3303 41.5343 13.0819 41.87 14.7718C42.2058 16.4618 43.035 18.0142 44.2529 19.2329C45.4709 20.4516 47.0227 21.2818 48.7124 21.6185C50.4021 21.9553 52.1536 21.7835 53.7457 21.1248C54.435 20.8396 55.081 20.4687 55.6697 20.0235V21.7816H59.1273V13.1049C59.1273 13.0962 59.1273 13.0876 59.1273 13.079C59.1274 13.0649 59.1273 13.0508 59.1273 13.0368ZM55.6697 13.0432V13.0982C55.6649 14.1318 55.3557 15.1413 54.7805 16.0004C54.2018 16.8648 53.3797 17.5382 52.4182 17.9354C51.4568 18.3325 50.3991 18.4357 49.3791 18.2318C48.359 18.0278 47.4223 17.526 46.6874 16.7897C45.9526 16.0533 45.4525 15.1156 45.2506 14.0951C45.0486 13.0746 45.1538 12.0171 45.5528 11.0564C45.9518 10.0957 46.6267 9.27483 47.4922 8.6977C48.3577 8.12057 49.3749 7.81306 50.4152 7.81406C51.106 7.81406 51.7902 7.95031 52.4283 8.21502C53.0665 8.47973 53.6462 8.8677 54.1343 9.35673C54.6223 9.84575 55.0092 10.4262 55.2726 11.0649C55.5316 11.6926 55.6663 12.3644 55.6697 13.0432ZM73.0543 7.8141C73.6875 7.81586 74.3151 7.93215 74.9068 8.15735L75.2198 4.62384C73.9319 4.29744 72.5865 4.26921 71.2861 4.54132C70.0204 4.80617 68.8297 5.34877 67.7998 6.12941V4.36131H64.3422V13.079V21.7815H67.7998V13.079V13.0588C67.8011 12.3748 67.9359 11.6975 68.1968 11.065C68.4603 10.4263 68.8472 9.84579 69.3352 9.35677C69.8233 8.86774 70.403 8.47977 71.0412 8.21506C71.6793 7.95035 72.3634 7.8141 73.0543 7.8141ZM11.6114 17.4441C10.7456 18.0219 9.72784 18.3298 8.68694 18.3288C7.29422 18.3288 5.95847 17.7759 4.97319 16.7915C3.98791 15.8071 3.43372 14.4718 3.43238 13.079L3.43237 13.075V13.0629C3.43357 12.0275 3.74027 11.0155 4.31422 10.1535C4.89117 9.2871 5.7122 8.61136 6.67339 8.21185C7.63457 7.81234 8.69268 7.70703 9.71375 7.90925C10.7348 8.11147 11.6729 8.61214 12.4093 9.34785C13.1457 10.0836 13.6472 11.0212 13.8504 12.0422C14.0536 13.0631 13.9493 14.1213 13.5507 15.083C13.1522 16.0446 12.4773 16.8663 11.6114 17.4441ZM8.68694 21.7816C6.77751 21.776 4.93434 21.1438 3.43237 19.9994V26.1378H0V13.069V4.36131H3.43237V6.13855C4.02653 5.68585 4.67957 5.30905 5.37703 5.02002C6.97027 4.35978 8.7236 4.18728 10.415 4.52437C12.1063 4.86146 13.6596 5.69297 14.878 6.91357C16.0964 8.13418 16.9252 9.68896 17.2593 11.381C17.5934 13.073 17.4179 14.8261 16.7549 16.4183C16.0919 18.0105 14.9713 19.37 13.5351 20.3248C12.0988 21.2796 10.4115 21.7866 8.68694 21.7816ZM77.1552 13.8132C77.8716 13.3345 78.7138 13.079 79.5753 13.079C80.7306 13.079 81.8386 13.538 82.6556 14.3549C83.4725 15.1719 83.9314 16.28 83.9314 17.4353C83.9314 18.2969 83.6759 19.1392 83.1973 19.8556C82.7186 20.572 82.0383 21.1303 81.2423 21.46C80.4464 21.7897 79.5705 21.876 78.7255 21.7079C77.8805 21.5398 77.1043 21.1249 76.4951 20.5157C75.8859 19.9065 75.471 19.1302 75.3029 18.2852C75.1349 17.4402 75.2211 16.5642 75.5508 15.7682C75.8805 14.9722 76.4389 14.2919 77.1552 13.8132ZM24.4764 5.99834C25.9555 4.93337 27.7313 4.35908 29.5539 4.35633L29.574 4.38158C31.3947 4.38848 33.1674 4.96529 34.6436 6.03104C36.1197 7.0968 37.2251 8.59801 37.8047 10.324C38.1032 11.2128 38.2545 12.1383 38.2581 13.0647H38.2652V21.7951H34.7978V13.0647H34.8286C34.8248 11.6728 34.2703 10.3388 33.2859 9.3544C32.2981 8.36656 30.9584 7.8116 29.5614 7.8116C28.1645 7.8116 26.8248 8.36656 25.837 9.3544C24.9006 10.2908 24.3532 11.5434 24.2987 12.8613V21.7816H20.8411V4.35633H24.2987V6.12975C24.3574 6.08524 24.4166 6.04143 24.4764 5.99834Z" fill="#010101"/>
</svg>
